<?xml version="1.0" encoding="utf-8" standalone="no"?>
<!DOCTYPE svg PUBLIC "-//W3C//DTD SVG 1.1//EN"
  "http://www.w3.org/Graphics/SVG/1.1/DTD/svg11.dtd">
<svg xmlns:xlink="http://www.w3.org/1999/xlink" width="489.6pt" height="244.8pt" viewBox="0 0 489.6 244.8" xmlns="http://www.w3.org/2000/svg" version="1.1">
 <metadata>
  <rdf:RDF xmlns:dc="http://purl.org/dc/elements/1.1/" xmlns:cc="http://creativecommons.org/ns#" xmlns:rdf="http://www.w3.org/1999/02/22-rdf-syntax-ns#">
   <cc:Work>
    <dc:type rdf:resource="http://purl.org/dc/dcmitype/StillImage"/>
    <dc:date>2023-10-29T20:37:00.951477</dc:date>
    <dc:format>image/svg+xml</dc:format>
    <dc:creator>
     <cc:Agent>
      <dc:title>Matplotlib v3.8.0, https://matplotlib.org/</dc:title>
     </cc:Agent>
    </dc:creator>
   </cc:Work>
  </rdf:RDF>
 </metadata>
 <defs>
  <style type="text/css">*{stroke-linejoin: round; stroke-linecap: butt}</style>
 </defs>
 <g id="figure_1">
  <g id="patch_1">
   <path d="M 0 244.8 
L 489.6 244.8 
L 489.6 0 
L 0 0 
z
" style="fill: #ffffff"/>
  </g>
  <g id="axes_1">
   <g id="patch_2">
    <path d="M 61.2 217.872 
L 440.64 217.872 
L 440.64 29.376 
L 61.2 29.376 
z
" style="fill: #ffffff"/>
   </g>
   <g id="matplotlib.axis_1">
    <g id="xtick_1">
     <g id="line2d_1">
      <path d="M 78.447273 217.872 
L 78.447273 29.376 
" clip-path="url(#ped79c98e11)" style="fill: none; stroke: #cccccc; stroke-linecap: round"/>
     </g>
     <g id="text_1">
      <!-- $\mathdefault{0}$ -->
      <g style="fill: #262626" transform="translate(75.707539 234.982347) scale(0.11 -0.11)">
       <defs>
        <path id="CMR17-30" d="M 2688 2025 
C 2688 2416 2682 3080 2413 3591 
C 2176 4039 1798 4198 1466 4198 
C 1158 4198 768 4058 525 3597 
C 269 3118 243 2524 243 2025 
C 243 1661 250 1106 448 619 
C 723 -39 1216 -128 1466 -128 
C 1760 -128 2208 -7 2470 600 
C 2662 1042 2688 1559 2688 2025 
z
M 1466 -26 
C 1056 -26 813 325 723 812 
C 653 1188 653 1738 653 2096 
C 653 2588 653 2997 736 3387 
C 858 3929 1216 4096 1466 4096 
C 1728 4096 2067 3923 2189 3400 
C 2272 3036 2278 2607 2278 2096 
C 2278 1680 2278 1169 2202 792 
C 2067 95 1690 -26 1466 -26 
z
" transform="scale(0.015625)"/>
       </defs>
       <use xlink:href="#CMR17-30" transform="scale(0.996264)"/>
      </g>
     </g>
    </g>
    <g id="xtick_2">
     <g id="line2d_2">
      <path d="M 141.164628 217.872 
L 141.164628 29.376 
" clip-path="url(#ped79c98e11)" style="fill: none; stroke: #cccccc; stroke-linecap: round"/>
     </g>
     <g id="text_2">
      <!-- $\mathdefault{2}$ -->
      <g style="fill: #262626" transform="translate(138.424894 234.982347) scale(0.11 -0.11)">
       <defs>
        <path id="CMR17-32" d="M 2669 989 
L 2554 989 
C 2490 536 2438 459 2413 420 
C 2381 369 1920 369 1830 369 
L 602 369 
C 832 619 1280 1072 1824 1597 
C 2214 1967 2669 2402 2669 3035 
C 2669 3790 2067 4224 1395 4224 
C 691 4224 262 3604 262 3030 
C 262 2780 448 2748 525 2748 
C 589 2748 781 2787 781 3010 
C 781 3207 614 3264 525 3264 
C 486 3264 448 3258 422 3245 
C 544 3790 915 4058 1306 4058 
C 1862 4058 2227 3617 2227 3035 
C 2227 2479 1901 2000 1536 1584 
L 262 146 
L 262 0 
L 2515 0 
L 2669 989 
z
" transform="scale(0.015625)"/>
       </defs>
       <use xlink:href="#CMR17-32" transform="scale(0.996264)"/>
      </g>
     </g>
    </g>
    <g id="xtick_3">
     <g id="line2d_3">
      <path d="M 203.881983 217.872 
L 203.881983 29.376 
" clip-path="url(#ped79c98e11)" style="fill: none; stroke: #cccccc; stroke-linecap: round"/>
     </g>
     <g id="text_3">
      <!-- $\mathdefault{4}$ -->
      <g style="fill: #262626" transform="translate(201.14225 234.982347) scale(0.11 -0.11)">
       <defs>
        <path id="CMR17-34" d="M 2150 4122 
C 2150 4256 2144 4256 2029 4256 
L 128 1254 
L 128 1088 
L 1779 1088 
L 1779 457 
C 1779 224 1766 160 1318 160 
L 1197 160 
L 1197 0 
C 1402 0 1747 0 1965 0 
C 2182 0 2528 0 2733 0 
L 2733 160 
L 2611 160 
C 2163 160 2150 224 2150 457 
L 2150 1088 
L 2803 1088 
L 2803 1254 
L 2150 1254 
L 2150 4122 
z
M 1798 3703 
L 1798 1254 
L 256 1254 
L 1798 3703 
z
" transform="scale(0.015625)"/>
       </defs>
       <use xlink:href="#CMR17-34" transform="scale(0.996264)"/>
      </g>
     </g>
    </g>
    <g id="xtick_4">
     <g id="line2d_4">
      <path d="M 266.599339 217.872 
L 266.599339 29.376 
" clip-path="url(#ped79c98e11)" style="fill: none; stroke: #cccccc; stroke-linecap: round"/>
     </g>
     <g id="text_4">
      <!-- $\mathdefault{6}$ -->
      <g style="fill: #262626" transform="translate(263.859605 234.982347) scale(0.11 -0.11)">
       <defs>
        <path id="CMR17-36" d="M 678 2176 
C 678 3690 1395 4032 1811 4032 
C 1946 4032 2272 4009 2400 3776 
C 2298 3776 2106 3776 2106 3553 
C 2106 3381 2246 3323 2336 3323 
C 2394 3323 2566 3348 2566 3560 
C 2566 3954 2246 4179 1805 4179 
C 1043 4179 243 3390 243 1984 
C 243 253 966 -128 1478 -128 
C 2099 -128 2688 427 2688 1283 
C 2688 2081 2170 2662 1517 2662 
C 1126 2662 838 2407 678 1960 
L 678 2176 
z
M 1478 25 
C 691 25 691 1200 691 1436 
C 691 1896 909 2560 1504 2560 
C 1613 2560 1926 2560 2138 2120 
C 2253 1870 2253 1609 2253 1289 
C 2253 944 2253 690 2118 434 
C 1978 171 1773 25 1478 25 
z
" transform="scale(0.015625)"/>
       </defs>
       <use xlink:href="#CMR17-36" transform="scale(0.996264)"/>
      </g>
     </g>
    </g>
    <g id="xtick_5">
     <g id="line2d_5">
      <path d="M 329.316694 217.872 
L 329.316694 29.376 
" clip-path="url(#ped79c98e11)" style="fill: none; stroke: #cccccc; stroke-linecap: round"/>
     </g>
     <g id="text_5">
      <!-- $\mathdefault{8}$ -->
      <g style="fill: #262626" transform="translate(326.576961 234.982347) scale(0.11 -0.11)">
       <defs>
        <path id="CMR17-38" d="M 1741 2264 
C 2144 2467 2554 2773 2554 3263 
C 2554 3841 1990 4179 1472 4179 
C 890 4179 378 3759 378 3180 
C 378 3021 416 2747 666 2505 
C 730 2442 998 2251 1171 2130 
C 883 1983 211 1634 211 934 
C 211 279 838 -128 1459 -128 
C 2144 -128 2720 362 2720 1010 
C 2720 1590 2330 1857 2074 2029 
L 1741 2264 
z
M 902 2822 
C 851 2854 595 3051 595 3351 
C 595 3739 998 4032 1459 4032 
C 1965 4032 2336 3676 2336 3262 
C 2336 2669 1670 2331 1638 2331 
C 1632 2331 1626 2331 1574 2370 
L 902 2822 
z
M 2080 1519 
C 2176 1449 2483 1240 2483 851 
C 2483 381 2010 25 1472 25 
C 890 25 448 438 448 940 
C 448 1443 838 1862 1280 2060 
L 2080 1519 
z
" transform="scale(0.015625)"/>
       </defs>
       <use xlink:href="#CMR17-38" transform="scale(0.996264)"/>
      </g>
     </g>
    </g>
    <g id="xtick_6">
     <g id="line2d_6">
      <path d="M 392.03405 217.872 
L 392.03405 29.376 
" clip-path="url(#ped79c98e11)" style="fill: none; stroke: #cccccc; stroke-linecap: round"/>
     </g>
     <g id="text_6">
      <!-- $\mathdefault{10}$ -->
      <g style="fill: #262626" transform="translate(386.554582 234.982347) scale(0.11 -0.11)">
       <defs>
        <path id="CMR17-31" d="M 1702 4058 
C 1702 4192 1696 4192 1606 4192 
C 1357 3916 979 3827 621 3827 
C 602 3827 570 3827 563 3808 
C 557 3795 557 3782 557 3648 
C 755 3648 1088 3686 1344 3839 
L 1344 461 
C 1344 236 1331 160 781 160 
L 589 160 
L 589 0 
C 896 0 1216 0 1523 0 
C 1830 0 2150 0 2458 0 
L 2458 160 
L 2266 160 
C 1715 160 1702 230 1702 458 
L 1702 4058 
z
" transform="scale(0.015625)"/>
       </defs>
       <use xlink:href="#CMR17-31" transform="scale(0.996264)"/>
       <use xlink:href="#CMR17-30" transform="translate(45.690477 0) scale(0.996264)"/>
      </g>
     </g>
    </g>
    <g id="text_7">
     <!-- Flip Iteration -->
     <g style="fill: #262626" transform="translate(219.372045 249.415421) scale(0.12 -0.12)">
      <defs>
       <path id="CMSS17-46" d="M 2918 1984 
L 2918 2373 
L 1101 2373 
L 1101 3968 
L 1882 3968 
C 1958 3968 2035 3968 2112 3968 
L 3168 3968 
L 3168 4375 
L 563 4375 
L 563 -32 
L 1101 -32 
L 1101 1984 
L 2918 1984 
z
" transform="scale(0.015625)"/>
       <path id="CMSS17-6c" d="M 947 4416 
L 474 4416 
L 474 0 
L 947 0 
L 947 4416 
z
" transform="scale(0.015625)"/>
       <path id="CMSS17-69" d="M 979 4183 
L 442 4183 
L 442 3648 
L 979 3648 
L 979 4183 
z
M 947 2739 
L 474 2739 
L 474 0 
L 947 0 
L 947 2739 
z
" transform="scale(0.015625)"/>
       <path id="CMSS17-70" d="M 966 333 
C 1178 129 1466 -5 1773 -5 
C 2368 -5 2880 603 2880 1412 
C 2880 2159 2496 2816 1946 2816 
C 1626 2816 1242 2702 954 2472 
L 954 2765 
L 480 2765 
L 480 -1216 
L 966 -1216 
L 966 333 
z
M 966 2100 
C 1018 2176 1235 2415 1587 2415 
C 2035 2415 2394 1960 2394 1412 
C 2394 787 1958 384 1530 384 
C 1402 384 1267 415 1139 523 
C 966 674 966 768 966 857 
L 966 2100 
z
" transform="scale(0.015625)"/>
       <path id="CMSS17-49" d="M 1094 4416 
L 557 4416 
L 557 0 
L 1094 0 
L 1094 4416 
z
" transform="scale(0.015625)"/>
       <path id="CMSS17-74" d="M 1069 2368 
L 1901 2368 
L 1901 2737 
L 1069 2737 
L 1069 3520 
L 614 3520 
L 614 2737 
L 109 2737 
L 109 2368 
L 602 2368 
L 602 749 
C 602 384 685 -64 1107 -64 
C 1427 -64 1722 25 2003 172 
L 1901 548 
C 1747 414 1562 337 1363 337 
C 1082 337 1069 696 1069 856 
L 1069 2368 
z
" transform="scale(0.015625)"/>
       <path id="CMSS17-65" d="M 2502 1377 
C 2502 1590 2490 2003 2285 2345 
C 2061 2713 1696 2816 1421 2816 
C 755 2816 192 2188 192 1375 
C 192 582 774 -64 1510 -64 
C 1798 -64 2150 19 2470 248 
C 2470 274 2458 414 2451 420 
C 2451 433 2432 630 2432 656 
C 2125 407 1773 325 1517 325 
C 1107 325 666 667 646 1377 
L 2502 1377 
z
M 698 1728 
C 781 2084 1062 2421 1421 2421 
C 1517 2421 1965 2421 2080 1728 
L 698 1728 
z
" transform="scale(0.015625)"/>
       <path id="CMSS17-72" d="M 954 1363 
C 954 1965 1395 2368 1958 2368 
L 1958 2789 
C 1549 2789 1165 2585 934 2253 
L 934 2758 
L 480 2758 
L 480 0 
L 954 0 
L 954 1363 
z
" transform="scale(0.015625)"/>
       <path id="CMSS17-61" d="M 2406 1791 
C 2406 2392 1978 2808 1402 2808 
C 1120 2808 813 2757 461 2553 
L 499 2135 
C 659 2248 934 2432 1395 2432 
C 1722 2432 1920 2180 1920 1782 
L 1920 1536 
C 896 1536 256 1238 256 726 
C 256 461 416 -64 947 -64 
C 1043 -64 1562 -64 1933 217 
L 1933 -19 
L 2406 -19 
L 2406 1791 
z
M 1920 816 
C 1920 701 1920 548 1728 434 
C 1562 325 1350 325 1261 325 
C 941 325 723 511 723 744 
C 723 1211 1722 1211 1920 1211 
L 1920 816 
z
" transform="scale(0.015625)"/>
       <path id="CMSS17-6f" d="M 2829 1356 
C 2829 2176 2221 2816 1504 2816 
C 768 2816 173 2157 173 1356 
C 173 544 787 -64 1498 -64 
C 2227 -64 2829 563 2829 1356 
z
M 1504 337 
C 1050 337 659 709 659 1408 
C 659 2151 1114 2427 1498 2427 
C 1914 2427 2342 2126 2342 1408 
C 2342 683 1926 337 1504 337 
z
" transform="scale(0.015625)"/>
       <path id="CMSS17-6e" d="M 2618 1877 
C 2618 2283 2522 2816 1798 2816 
C 1389 2816 1120 2606 941 2389 
L 941 2758 
L 474 2758 
L 474 0 
L 960 0 
L 960 1559 
C 960 1964 1114 2428 1549 2428 
C 2112 2428 2131 2048 2131 1829 
L 2131 0 
L 2618 0 
L 2618 1877 
z
" transform="scale(0.015625)"/>
      </defs>
      <use xlink:href="#CMSS17-46" transform="scale(0.996264)"/>
      <use xlink:href="#CMSS17-6c" transform="translate(53.289559 0) scale(0.996264)"/>
      <use xlink:href="#CMSS17-69" transform="translate(75.470282 0) scale(0.996264)"/>
      <use xlink:href="#CMSS17-70" transform="translate(97.651005 0) scale(0.996264)"/>
      <use xlink:href="#CMSS17-49" transform="translate(177.085061 0) scale(0.996264)"/>
      <use xlink:href="#CMSS17-74" transform="translate(202.868987 0) scale(0.996264)"/>
      <use xlink:href="#CMSS17-65" transform="translate(236.700553 0) scale(0.996264)"/>
      <use xlink:href="#CMSS17-72" transform="translate(278.339376 0) scale(0.996264)"/>
      <use xlink:href="#CMSS17-61" transform="translate(310.249148 0) scale(0.996264)"/>
      <use xlink:href="#CMSS17-74" transform="translate(355.171069 0) scale(0.996264)"/>
      <use xlink:href="#CMSS17-69" transform="translate(389.002635 0) scale(0.996264)"/>
      <use xlink:href="#CMSS17-6f" transform="translate(411.183358 0) scale(0.996264)"/>
      <use xlink:href="#CMSS17-6e" transform="translate(458.026982 0) scale(0.996264)"/>
     </g>
    </g>
   </g>
   <g id="matplotlib.axis_2">
    <g id="ytick_1">
     <g id="line2d_7">
      <path d="M 61.2 214.165277 
L 440.64 214.165277 
" clip-path="url(#ped79c98e11)" style="fill: none; stroke: #cccccc; stroke-linecap: round"/>
     </g>
     <g id="text_8">
      <!-- $\mathdefault{1.0202}$ -->
      <g style="fill: #262626" transform="translate(21.258522 217.97045) scale(0.11 -0.11)">
       <defs>
        <path id="CMMI12-3a" d="M 1178 307 
C 1178 492 1024 619 870 619 
C 685 619 557 466 557 313 
C 557 128 710 0 864 0 
C 1050 0 1178 153 1178 307 
z
" transform="scale(0.015625)"/>
       </defs>
       <use xlink:href="#CMR17-31" transform="scale(0.996264)"/>
       <use xlink:href="#CMMI12-3a" transform="translate(45.690477 0) scale(0.996264)"/>
       <use xlink:href="#CMR17-30" transform="translate(72.787654 0) scale(0.996264)"/>
       <use xlink:href="#CMR17-32" transform="translate(118.478131 0) scale(0.996264)"/>
       <use xlink:href="#CMR17-30" transform="translate(164.168608 0) scale(0.996264)"/>
       <use xlink:href="#CMR17-32" transform="translate(209.859086 0) scale(0.996264)"/>
      </g>
     </g>
    </g>
    <g id="ytick_2">
     <g id="line2d_8">
      <path d="M 61.2 189.858894 
L 440.64 189.858894 
" clip-path="url(#ped79c98e11)" style="fill: none; stroke: #cccccc; stroke-linecap: round"/>
     </g>
     <g id="text_9">
      <!-- $\mathdefault{1.0204}$ -->
      <g style="fill: #262626" transform="translate(21.258522 193.664067) scale(0.11 -0.11)">
       <use xlink:href="#CMR17-31" transform="scale(0.996264)"/>
       <use xlink:href="#CMMI12-3a" transform="translate(45.690477 0) scale(0.996264)"/>
       <use xlink:href="#CMR17-30" transform="translate(72.787654 0) scale(0.996264)"/>
       <use xlink:href="#CMR17-32" transform="translate(118.478131 0) scale(0.996264)"/>
       <use xlink:href="#CMR17-30" transform="translate(164.168608 0) scale(0.996264)"/>
       <use xlink:href="#CMR17-34" transform="translate(209.859086 0) scale(0.996264)"/>
      </g>
     </g>
    </g>
    <g id="ytick_3">
     <g id="line2d_9">
      <path d="M 61.2 165.552511 
L 440.64 165.552511 
" clip-path="url(#ped79c98e11)" style="fill: none; stroke: #cccccc; stroke-linecap: round"/>
     </g>
     <g id="text_10">
      <!-- $\mathdefault{1.0206}$ -->
      <g style="fill: #262626" transform="translate(21.258522 169.357684) scale(0.11 -0.11)">
       <use xlink:href="#CMR17-31" transform="scale(0.996264)"/>
       <use xlink:href="#CMMI12-3a" transform="translate(45.690477 0) scale(0.996264)"/>
       <use xlink:href="#CMR17-30" transform="translate(72.787654 0) scale(0.996264)"/>
       <use xlink:href="#CMR17-32" transform="translate(118.478131 0) scale(0.996264)"/>
       <use xlink:href="#CMR17-30" transform="translate(164.168608 0) scale(0.996264)"/>
       <use xlink:href="#CMR17-36" transform="translate(209.859086 0) scale(0.996264)"/>
      </g>
     </g>
    </g>
    <g id="ytick_4">
     <g id="line2d_10">
      <path d="M 61.2 141.246128 
L 440.64 141.246128 
" clip-path="url(#ped79c98e11)" style="fill: none; stroke: #cccccc; stroke-linecap: round"/>
     </g>
     <g id="text_11">
      <!-- $\mathdefault{1.0208}$ -->
      <g style="fill: #262626" transform="translate(21.258522 145.051301) scale(0.11 -0.11)">
       <use xlink:href="#CMR17-31" transform="scale(0.996264)"/>
       <use xlink:href="#CMMI12-3a" transform="translate(45.690477 0) scale(0.996264)"/>
       <use xlink:href="#CMR17-30" transform="translate(72.787654 0) scale(0.996264)"/>
       <use xlink:href="#CMR17-32" transform="translate(118.478131 0) scale(0.996264)"/>
       <use xlink:href="#CMR17-30" transform="translate(164.168608 0) scale(0.996264)"/>
       <use xlink:href="#CMR17-38" transform="translate(209.859086 0) scale(0.996264)"/>
      </g>
     </g>
    </g>
    <g id="ytick_5">
     <g id="line2d_11">
      <path d="M 61.2 116.939745 
L 440.64 116.939745 
" clip-path="url(#ped79c98e11)" style="fill: none; stroke: #cccccc; stroke-linecap: round"/>
     </g>
     <g id="text_12">
      <!-- $\mathdefault{1.0210}$ -->
      <g style="fill: #262626" transform="translate(21.258522 120.744918) scale(0.11 -0.11)">
       <use xlink:href="#CMR17-31" transform="scale(0.996264)"/>
       <use xlink:href="#CMMI12-3a" transform="translate(45.690477 0) scale(0.996264)"/>
       <use xlink:href="#CMR17-30" transform="translate(72.787654 0) scale(0.996264)"/>
       <use xlink:href="#CMR17-32" transform="translate(118.478131 0) scale(0.996264)"/>
       <use xlink:href="#CMR17-31" transform="translate(164.168608 0) scale(0.996264)"/>
       <use xlink:href="#CMR17-30" transform="translate(209.859086 0) scale(0.996264)"/>
      </g>
     </g>
    </g>
    <g id="ytick_6">
     <g id="line2d_12">
      <path d="M 61.2 92.633362 
L 440.64 92.633362 
" clip-path="url(#ped79c98e11)" style="fill: none; stroke: #cccccc; stroke-linecap: round"/>
     </g>
     <g id="text_13">
      <!-- $\mathdefault{1.0212}$ -->
      <g style="fill: #262626" transform="translate(21.258522 96.438535) scale(0.11 -0.11)">
       <use xlink:href="#CMR17-31" transform="scale(0.996264)"/>
       <use xlink:href="#CMMI12-3a" transform="translate(45.690477 0) scale(0.996264)"/>
       <use xlink:href="#CMR17-30" transform="translate(72.787654 0) scale(0.996264)"/>
       <use xlink:href="#CMR17-32" transform="translate(118.478131 0) scale(0.996264)"/>
       <use xlink:href="#CMR17-31" transform="translate(164.168608 0) scale(0.996264)"/>
       <use xlink:href="#CMR17-32" transform="translate(209.859086 0) scale(0.996264)"/>
      </g>
     </g>
    </g>
    <g id="ytick_7">
     <g id="line2d_13">
      <path d="M 61.2 68.326979 
L 440.64 68.326979 
" clip-path="url(#ped79c98e11)" style="fill: none; stroke: #cccccc; stroke-linecap: round"/>
     </g>
     <g id="text_14">
      <!-- $\mathdefault{1.0214}$ -->
      <g style="fill: #262626" transform="translate(21.258522 72.132152) scale(0.11 -0.11)">
       <use xlink:href="#CMR17-31" transform="scale(0.996264)"/>
       <use xlink:href="#CMMI12-3a" transform="translate(45.690477 0) scale(0.996264)"/>
       <use xlink:href="#CMR17-30" transform="translate(72.787654 0) scale(0.996264)"/>
       <use xlink:href="#CMR17-32" transform="translate(118.478131 0) scale(0.996264)"/>
       <use xlink:href="#CMR17-31" transform="translate(164.168608 0) scale(0.996264)"/>
       <use xlink:href="#CMR17-34" transform="translate(209.859086 0) scale(0.996264)"/>
      </g>
     </g>
    </g>
    <g id="ytick_8">
     <g id="line2d_14">
      <path d="M 61.2 44.020596 
L 440.64 44.020596 
" clip-path="url(#ped79c98e11)" style="fill: none; stroke: #cccccc; stroke-linecap: round"/>
     </g>
     <g id="text_15">
      <!-- $\mathdefault{1.0216}$ -->
      <g style="fill: #262626" transform="translate(21.258522 47.825769) scale(0.11 -0.11)">
       <use xlink:href="#CMR17-31" transform="scale(0.996264)"/>
       <use xlink:href="#CMMI12-3a" transform="translate(45.690477 0) scale(0.996264)"/>
       <use xlink:href="#CMR17-30" transform="translate(72.787654 0) scale(0.996264)"/>
       <use xlink:href="#CMR17-32" transform="translate(118.478131 0) scale(0.996264)"/>
       <use xlink:href="#CMR17-31" transform="translate(164.168608 0) scale(0.996264)"/>
       <use xlink:href="#CMR17-36" transform="translate(209.859086 0) scale(0.996264)"/>
      </g>
     </g>
    </g>
    <g id="text_16">
     <!-- Energy / Total Area -->
     <g style="fill: #262626" transform="translate(14.26973 173.069941) rotate(-90) scale(0.12 -0.12)">
      <defs>
       <path id="CMSS17-45" d="M 1958 433 
C 1446 433 1216 433 1101 433 
L 1101 2107 
L 3085 2107 
L 3085 2496 
L 1101 2496 
L 1101 4009 
L 1926 4009 
C 2003 4009 2080 4009 2157 4009 
L 3251 4009 
L 3251 4416 
L 563 4416 
L 563 0 
L 3334 0 
L 3334 433 
L 1958 433 
z
" transform="scale(0.015625)"/>
       <path id="CMSS17-67" d="M 2848 2808 
C 2483 2808 2170 2738 1914 2617 
C 1702 2777 1485 2808 1338 2808 
C 781 2808 358 2349 358 1814 
C 358 1468 550 1207 563 1195 
C 448 1035 384 863 384 672 
C 384 448 474 289 544 200 
C 211 -3 166 -314 166 -435 
C 166 -898 749 -1280 1498 -1280 
C 2253 -1280 2835 -898 2835 -428 
C 2835 448 1856 448 1587 448 
L 1069 448 
C 973 448 717 448 717 791 
C 717 921 774 1004 781 1010 
C 877 940 1075 832 1338 832 
C 1869 832 2310 1278 2310 1827 
C 2310 2132 2170 2355 2112 2432 
L 2131 2432 
C 2150 2432 2419 2432 2515 2432 
C 2720 2432 2739 2429 2918 2419 
L 2848 2808 
z
M 1338 1182 
C 1120 1182 813 1315 813 1823 
C 813 2375 1165 2464 1331 2464 
C 1549 2464 1856 2331 1856 1823 
C 1856 1271 1504 1182 1338 1182 
z
M 1581 -10 
C 1734 -10 2381 -10 2381 -442 
C 2381 -714 1984 -929 1504 -929 
C 1018 -929 621 -720 621 -435 
C 621 -403 621 -10 1062 -10 
L 1581 -10 
z
" transform="scale(0.015625)"/>
       <path id="CMSS17-79" d="M 2675 2752 
L 2176 2752 
C 1632 1294 1446 702 1434 383 
L 1427 383 
C 1408 696 1126 1460 902 2007 
L 602 2752 
L 83 2752 
L 1216 13 
C 1146 -178 1043 -465 1011 -529 
C 870 -885 774 -885 672 -885 
C 646 -885 442 -885 211 -809 
L 250 -1229 
C 410 -1261 570 -1280 685 -1280 
C 845 -1280 1165 -1280 1459 -497 
L 2675 2752 
z
" transform="scale(0.015625)"/>
       <path id="CMSS17-2f" d="M 2637 4545 
C 2669 4627 2669 4640 2669 4653 
C 2669 4729 2611 4768 2560 4768 
C 2483 4768 2458 4717 2432 4640 
L 365 -1377 
C 333 -1460 333 -1473 333 -1486 
C 333 -1562 390 -1600 442 -1600 
C 518 -1600 544 -1549 570 -1473 
L 2637 4545 
z
" transform="scale(0.015625)"/>
       <path id="CMSS17-54" d="M 2317 3968 
L 2848 3968 
C 2925 3968 3002 3968 3078 3968 
L 3878 3968 
L 3878 4376 
L 218 4376 
L 218 3968 
L 1018 3968 
C 1094 3968 1171 3968 1248 3968 
L 1779 3968 
L 1779 -32 
L 2317 -32 
L 2317 3968 
z
" transform="scale(0.015625)"/>
       <path id="CMSS17-41" d="M 2272 4416 
L 1722 4416 
L 166 0 
L 653 0 
L 1101 1280 
L 2816 1280 
L 3270 0 
L 3827 0 
L 2272 4416 
z
M 2694 1637 
L 1222 1637 
C 1530 2528 1914 3638 1958 3925 
L 1965 3925 
C 2010 3663 2138 3281 2246 2956 
L 2694 1637 
z
" transform="scale(0.015625)"/>
      </defs>
      <use xlink:href="#CMSS17-45" transform="scale(0.996264)"/>
      <use xlink:href="#CMSS17-6e" transform="translate(55.892013 0) scale(0.996264)"/>
      <use xlink:href="#CMSS17-65" transform="translate(104.096956 0) scale(0.996264)"/>
      <use xlink:href="#CMSS17-72" transform="translate(145.735778 0) scale(0.996264)"/>
      <use xlink:href="#CMSS17-67" transform="translate(177.645551 0) scale(0.996264)"/>
      <use xlink:href="#CMSS17-79" transform="translate(224.489175 0) scale(0.996264)"/>
      <use xlink:href="#CMSS17-2f" transform="translate(298.718429 0) scale(0.996264)"/>
      <use xlink:href="#CMSS17-54" transform="translate(376.791165 0) scale(0.996264)"/>
      <use xlink:href="#CMSS17-6f" transform="translate(432.803364 0) scale(0.996264)"/>
      <use xlink:href="#CMSS17-74" transform="translate(479.646987 0) scale(0.996264)"/>
      <use xlink:href="#CMSS17-61" transform="translate(513.478554 0) scale(0.996264)"/>
      <use xlink:href="#CMSS17-6c" transform="translate(558.400475 0) scale(0.996264)"/>
      <use xlink:href="#CMSS17-41" transform="translate(611.81031 0) scale(0.996264)"/>
      <use xlink:href="#CMSS17-72" transform="translate(674.028165 0) scale(0.996264)"/>
      <use xlink:href="#CMSS17-65" transform="translate(705.937938 0) scale(0.996264)"/>
      <use xlink:href="#CMSS17-61" transform="translate(747.57676 0) scale(0.996264)"/>
     </g>
    </g>
   </g>
   <g id="PolyCollection_1"/>
   <g id="PolyCollection_2"/>
   <g id="PolyCollection_3"/>
   <g id="PolyCollection_4"/>
   <g id="line2d_15">
    <path d="M 78.447273 37.944 
L 109.80595 175.275064 
L 141.164628 193.504851 
L 172.523306 204.442723 
L 203.881983 205.658043 
L 235.240661 208.088681 
L 266.599339 209.304 
L 297.958017 209.304 
L 329.316694 209.304 
" clip-path="url(#ped79c98e11)" style="fill: none; stroke-dasharray: 7.5,3,1.5,3; stroke-dashoffset: 0; stroke: #1f77b4; stroke-width: 1.5"/>
   </g>
   <g id="line2d_16">
    <path d="M 78.447273 37.944 
L 109.80595 166.76783 
L 141.164628 183.782298 
L 172.523306 189.858894 
L 203.881983 199.581447 
L 235.240661 204.442723 
L 266.599339 205.658043 
L 297.958017 206.873362 
L 329.316694 206.873362 
L 360.675372 206.873362 
L 392.03405 206.873362 
L 423.392727 206.873362 
" clip-path="url(#ped79c98e11)" style="fill: none; stroke-dasharray: 4.5,3,1.5,3; stroke-dashoffset: 0; stroke: #ff7f0e; stroke-width: 1.5"/>
   </g>
   <g id="line2d_17">
    <path d="M 78.447273 37.944 
L 109.80595 174.059745 
L 141.164628 188.643574 
L 172.523306 192.289532 
L 203.881983 193.504851 
L 235.240661 194.72017 
L 266.599339 194.72017 
L 297.958017 194.72017 
L 329.316694 194.72017 
" clip-path="url(#ped79c98e11)" style="fill: none; stroke-dasharray: 6,3,1.5,3; stroke-dashoffset: 0; stroke: #2ca02c; stroke-width: 1.5"/>
   </g>
   <g id="line2d_18">
    <path d="M 78.447273 37.944 
L 109.80595 166.76783 
L 141.164628 183.782298 
L 172.523306 189.858894 
L 203.881983 199.581447 
L 235.240661 204.442723 
L 266.599339 205.658043 
L 297.958017 206.873362 
L 329.316694 206.873362 
L 360.675372 206.873362 
L 392.03405 206.873362 
L 423.392727 206.873362 
" clip-path="url(#ped79c98e11)" style="fill: none; stroke-dasharray: 3,3,1.5,3; stroke-dashoffset: 0; stroke: #d62728; stroke-width: 1.5"/>
   </g>
   <g id="line2d_19"/>
   <g id="line2d_20"/>
   <g id="line2d_21"/>
   <g id="line2d_22"/>
   <g id="patch_3">
    <path d="M 61.2 217.872 
L 61.2 29.376 
" style="fill: none; stroke: #cccccc; stroke-width: 1.25; stroke-linejoin: miter; stroke-linecap: square"/>
   </g>
   <g id="patch_4">
    <path d="M 440.64 217.872 
L 440.64 29.376 
" style="fill: none; stroke: #cccccc; stroke-width: 1.25; stroke-linejoin: miter; stroke-linecap: square"/>
   </g>
   <g id="patch_5">
    <path d="M 61.2 217.872 
L 440.64 217.872 
" style="fill: none; stroke: #cccccc; stroke-width: 1.25; stroke-linejoin: miter; stroke-linecap: square"/>
   </g>
   <g id="patch_6">
    <path d="M 61.2 29.376 
L 440.64 29.376 
" style="fill: none; stroke: #cccccc; stroke-width: 1.25; stroke-linejoin: miter; stroke-linecap: square"/>
   </g>
   <g id="text_17">
    <!-- Energy vs Flip Iteration for (Stripe, Fixed Boundary, ARAP (after 10th itr.)) -->
    <g style="fill: #262626" transform="translate(64.649938 23.376) scale(0.12 -0.12)">
     <defs>
      <path id="CMSS17-76" d="M 2675 2752 
L 2176 2752 
L 1747 1556 
C 1613 1165 1421 627 1389 352 
L 1382 352 
C 1370 468 1318 634 1286 749 
C 1248 890 1197 1056 1158 1172 
L 595 2752 
L 83 2752 
L 1094 0 
L 1664 0 
L 2675 2752 
z
" transform="scale(0.015625)"/>
      <path id="CMSS17-73" d="M 2061 2627 
C 1683 2807 1389 2807 1197 2807 
C 742 2807 198 2648 198 2003 
C 198 1359 902 1218 1094 1179 
C 1389 1122 1715 1058 1715 740 
C 1715 337 1254 337 1171 337 
C 915 337 563 407 243 638 
L 166 210 
C 531 0 883 -64 1178 -64 
C 1965 -64 2163 416 2163 781 
C 2163 1094 1984 1305 1862 1401 
C 1651 1568 1574 1587 1050 1696 
C 960 1709 646 1779 646 2066 
C 646 2432 1050 2432 1139 2432 
C 1555 2432 1811 2303 1984 2208 
L 2061 2627 
z
" transform="scale(0.015625)"/>
      <path id="CMSS17-66" d="M 1075 2368 
L 1722 2368 
L 1722 2737 
L 1062 2737 
L 1062 3559 
C 1062 4014 1408 4092 1606 4092 
C 1670 4092 1850 4092 2080 4009 
L 2080 4429 
C 1933 4461 1754 4480 1613 4480 
C 1018 4480 602 3993 602 3359 
L 602 2737 
L 160 2737 
L 160 2368 
L 602 2368 
L 602 0 
L 1075 0 
L 1075 2368 
z
" transform="scale(0.015625)"/>
      <path id="CMSS17-28" d="M 1613 4768 
C 1267 4417 474 3601 474 1588 
C 474 -433 1267 -1243 1613 -1600 
L 2003 -1600 
C 1216 -784 960 357 960 1581 
C 960 2798 1203 3946 2003 4768 
L 1613 4768 
z
" transform="scale(0.015625)"/>
      <path id="CMSS17-53" d="M 2797 4169 
C 2515 4334 2208 4480 1690 4480 
C 864 4480 333 3879 333 3266 
C 333 3025 403 2753 653 2475 
C 902 2196 1184 2121 1542 2033 
C 1690 1994 1939 1924 1984 1906 
C 2342 1767 2515 1444 2515 1140 
C 2515 742 2202 318 1645 318 
C 1453 318 890 318 358 819 
L 269 318 
C 794 -64 1363 -128 1651 -128 
C 2438 -128 3002 488 3002 1186 
C 3002 1440 2925 1763 2656 2061 
C 2394 2347 2163 2410 1638 2549 
C 1338 2626 1146 2677 986 2873 
C 877 3013 819 3146 819 3317 
C 819 3673 1126 4060 1690 4060 
C 1971 4060 2336 4002 2707 3660 
L 2797 4169 
z
" transform="scale(0.015625)"/>
      <path id="CMSS17-2c" d="M 1088 6 
L 1088 510 
L 576 510 
L 576 0 
L 736 0 
L 570 -800 
L 826 -800 
L 1088 6 
z
" transform="scale(0.015625)"/>
      <path id="CMSS17-78" d="M 1587 1414 
L 2656 2739 
L 2099 2739 
L 1363 1777 
L 602 2739 
L 32 2739 
L 1139 1414 
L 0 0 
L 563 0 
L 1363 1121 
L 2195 0 
L 2758 0 
L 1587 1414 
z
" transform="scale(0.015625)"/>
      <path id="CMSS17-64" d="M 2611 4416 
L 2138 4416 
L 2138 2438 
C 1939 2603 1613 2756 1254 2756 
C 672 2756 211 2131 211 1347 
C 211 562 666 -64 1235 -64 
C 1677 -64 1971 172 2125 306 
L 2125 -13 
L 2611 -13 
L 2611 4416 
z
M 2125 836 
C 2125 747 2125 653 1926 482 
C 1798 375 1645 325 1498 325 
C 1152 325 698 576 698 1340 
C 698 2134 1210 2368 1562 2368 
C 1798 2368 1990 2254 2125 2065 
L 2125 836 
z
" transform="scale(0.015625)"/>
      <path id="CMSS17-42" d="M 570 4416 
L 570 0 
L 2163 0 
C 3034 0 3667 574 3667 1200 
C 3667 1685 3251 2176 2502 2317 
C 3334 2558 3501 3040 3501 3313 
C 3501 3883 2874 4416 1997 4416 
L 570 4416 
z
M 1088 2496 
L 1088 4059 
L 1824 4059 
C 2483 4059 3002 3724 3002 3306 
C 3002 2926 2592 2496 1766 2496 
L 1088 2496 
z
M 1088 357 
L 1088 2107 
L 1939 2107 
C 2630 2107 3162 1679 3162 1206 
C 3162 772 2694 357 1984 357 
L 1088 357 
z
" transform="scale(0.015625)"/>
      <path id="CMSS17-75" d="M 2618 2739 
L 2131 2739 
L 2131 972 
C 2131 498 1786 306 1421 306 
C 998 306 960 447 960 709 
L 960 2739 
L 474 2739 
L 474 678 
C 474 179 646 -64 1088 -64 
C 1306 -64 1798 -13 2144 306 
L 2144 0 
L 2618 0 
L 2618 2739 
z
" transform="scale(0.015625)"/>
      <path id="CMSS17-52" d="M 2522 2109 
L 2534 2115 
C 3533 2459 3539 3147 3539 3268 
C 3539 3873 2925 4453 2003 4453 
L 570 4453 
L 570 32 
L 1094 32 
L 1094 2048 
L 2035 2048 
L 3168 32 
L 3706 32 
L 2522 2109 
z
M 1094 2437 
L 1094 4096 
L 1933 4096 
C 2746 4096 3034 3637 3034 3267 
C 3034 2922 2778 2437 1933 2437 
L 1094 2437 
z
" transform="scale(0.015625)"/>
      <path id="CMSS17-50" d="M 2106 1856 
C 2874 1856 3501 2453 3501 3158 
C 3501 3850 2899 4453 2067 4453 
L 570 4453 
L 570 0 
L 1107 0 
L 1107 1856 
L 2106 1856 
z
M 1926 4096 
C 2669 4096 2995 3627 2995 3157 
C 2995 2720 2694 2226 1926 2226 
L 1094 2226 
L 1094 4096 
L 1926 4096 
z
" transform="scale(0.015625)"/>
      <path id="CMSS17-31" d="M 1818 4288 
L 1696 4288 
C 1350 3940 947 3890 538 3890 
L 538 3520 
C 723 3520 1024 3520 1325 3667 
L 1325 369 
L 570 369 
L 570 0 
L 2573 0 
L 2573 369 
L 1818 369 
L 1818 4288 
z
" transform="scale(0.015625)"/>
      <path id="CMSS17-30" d="M 2758 2044 
C 2758 2405 2752 3077 2490 3596 
C 2227 4096 1805 4229 1504 4229 
C 1069 4229 698 3975 506 3570 
C 301 3146 243 2709 243 2044 
C 243 1589 262 1031 493 543 
C 755 5 1197 -128 1498 -128 
C 1894 -128 2278 81 2496 518 
C 2720 974 2758 1474 2758 2044 
z
M 1498 261 
C 1011 261 864 811 819 995 
C 742 1310 730 1614 730 2114 
C 730 2506 730 2948 851 3297 
C 998 3701 1254 3840 1498 3840 
C 1971 3840 2125 3372 2176 3208 
C 2272 2873 2272 2481 2272 2114 
C 2272 1526 2272 261 1498 261 
z
" transform="scale(0.015625)"/>
      <path id="CMSS17-68" d="M 2618 1891 
C 2618 2292 2522 2820 1798 2820 
C 1395 2820 1133 2623 947 2407 
L 947 4448 
L 474 4448 
L 474 32 
L 960 32 
L 960 1573 
C 960 1973 1114 2432 1549 2432 
C 2112 2432 2131 2056 2131 1839 
L 2131 32 
L 2618 32 
L 2618 1891 
z
" transform="scale(0.015625)"/>
      <path id="CMSS17-2e" d="M 1088 510 
L 576 510 
L 576 0 
L 1088 0 
L 1088 510 
z
" transform="scale(0.015625)"/>
      <path id="CMSS17-29" d="M 723 -1600 
C 1069 -1249 1862 -433 1862 1581 
C 1862 3601 1069 4411 723 4768 
L 333 4768 
C 1120 3952 1376 2811 1376 1588 
C 1376 370 1133 -778 333 -1600 
L 723 -1600 
z
" transform="scale(0.015625)"/>
     </defs>
     <use xlink:href="#CMSS17-45" transform="scale(0.996264)"/>
     <use xlink:href="#CMSS17-6e" transform="translate(55.892013 0) scale(0.996264)"/>
     <use xlink:href="#CMSS17-65" transform="translate(104.096956 0) scale(0.996264)"/>
     <use xlink:href="#CMSS17-72" transform="translate(145.735778 0) scale(0.996264)"/>
     <use xlink:href="#CMSS17-67" transform="translate(177.645551 0) scale(0.996264)"/>
     <use xlink:href="#CMSS17-79" transform="translate(224.489175 0) scale(0.996264)"/>
     <use xlink:href="#CMSS17-76" transform="translate(298.718429 0) scale(0.996264)"/>
     <use xlink:href="#CMSS17-73" transform="translate(341.718571 0) scale(0.996264)"/>
     <use xlink:href="#CMSS17-46" transform="translate(408.861225 0) scale(0.996264)"/>
     <use xlink:href="#CMSS17-6c" transform="translate(462.150785 0) scale(0.996264)"/>
     <use xlink:href="#CMSS17-69" transform="translate(484.331508 0) scale(0.996264)"/>
     <use xlink:href="#CMSS17-70" transform="translate(506.512231 0) scale(0.996264)"/>
     <use xlink:href="#CMSS17-49" transform="translate(585.946287 0) scale(0.996264)"/>
     <use xlink:href="#CMSS17-74" transform="translate(611.730212 0) scale(0.996264)"/>
     <use xlink:href="#CMSS17-65" transform="translate(645.561779 0) scale(0.996264)"/>
     <use xlink:href="#CMSS17-72" transform="translate(687.200601 0) scale(0.996264)"/>
     <use xlink:href="#CMSS17-61" transform="translate(719.110373 0) scale(0.996264)"/>
     <use xlink:href="#CMSS17-74" transform="translate(764.032294 0) scale(0.996264)"/>
     <use xlink:href="#CMSS17-69" transform="translate(797.863861 0) scale(0.996264)"/>
     <use xlink:href="#CMSS17-6f" transform="translate(820.044584 0) scale(0.996264)"/>
     <use xlink:href="#CMSS17-6e" transform="translate(866.888207 0) scale(0.996264)"/>
     <use xlink:href="#CMSS17-66" transform="translate(946.322263 0) scale(0.996264)"/>
     <use xlink:href="#CMSS17-6f" transform="translate(974.948922 0) scale(0.996264)"/>
     <use xlink:href="#CMSS17-72" transform="translate(1019.190092 0) scale(0.996264)"/>
     <use xlink:href="#CMSS17-28" transform="translate(1082.328977 0) scale(0.996264)"/>
     <use xlink:href="#CMSS17-53" transform="translate(1118.762891 0) scale(0.996264)"/>
     <use xlink:href="#CMSS17-74" transform="translate(1170.811407 0) scale(0.996264)"/>
     <use xlink:href="#CMSS17-72" transform="translate(1204.642974 0) scale(0.996264)"/>
     <use xlink:href="#CMSS17-69" transform="translate(1236.552747 0) scale(0.996264)"/>
     <use xlink:href="#CMSS17-70" transform="translate(1258.73347 0) scale(0.996264)"/>
     <use xlink:href="#CMSS17-65" transform="translate(1309.540851 0) scale(0.996264)"/>
     <use xlink:href="#CMSS17-2c" transform="translate(1351.179674 0) scale(0.996264)"/>
     <use xlink:href="#CMSS17-46" transform="translate(1408.432991 0) scale(0.996264)"/>
     <use xlink:href="#CMSS17-69" transform="translate(1461.72255 0) scale(0.996264)"/>
     <use xlink:href="#CMSS17-78" transform="translate(1483.903273 0) scale(0.996264)"/>
     <use xlink:href="#CMSS17-65" transform="translate(1526.903415 0) scale(0.996264)"/>
     <use xlink:href="#CMSS17-64" transform="translate(1568.542237 0) scale(0.996264)"/>
     <use xlink:href="#CMSS17-42" transform="translate(1647.976293 0) scale(0.996264)"/>
     <use xlink:href="#CMSS17-6f" transform="translate(1710.314333 0) scale(0.996264)"/>
     <use xlink:href="#CMSS17-75" transform="translate(1757.157957 0) scale(0.996264)"/>
     <use xlink:href="#CMSS17-6e" transform="translate(1805.3629 0) scale(0.996264)"/>
     <use xlink:href="#CMSS17-64" transform="translate(1853.567843 0) scale(0.996264)"/>
     <use xlink:href="#CMSS17-61" transform="translate(1901.772786 0) scale(0.996264)"/>
     <use xlink:href="#CMSS17-72" transform="translate(1944.092253 0) scale(0.996264)"/>
     <use xlink:href="#CMSS17-79" transform="translate(1976.002025 0) scale(0.996264)"/>
     <use xlink:href="#CMSS17-2c" transform="translate(2011.194912 0) scale(0.996264)"/>
     <use xlink:href="#CMSS17-41" transform="translate(2068.448229 0) scale(0.996264)"/>
     <use xlink:href="#CMSS17-52" transform="translate(2130.666084 0) scale(0.996264)"/>
     <use xlink:href="#CMSS17-41" transform="translate(2191.082239 0) scale(0.996264)"/>
     <use xlink:href="#CMSS17-50" transform="translate(2253.300094 0) scale(0.996264)"/>
     <use xlink:href="#CMSS17-28" transform="translate(2344.264793 0) scale(0.996264)"/>
     <use xlink:href="#CMSS17-61" transform="translate(2380.698707 0) scale(0.996264)"/>
     <use xlink:href="#CMSS17-66" transform="translate(2425.620628 0) scale(0.996264)"/>
     <use xlink:href="#CMSS17-74" transform="translate(2454.247287 0) scale(0.996264)"/>
     <use xlink:href="#CMSS17-65" transform="translate(2488.078853 0) scale(0.996264)"/>
     <use xlink:href="#CMSS17-72" transform="translate(2529.717676 0) scale(0.996264)"/>
     <use xlink:href="#CMSS17-31" transform="translate(2592.856561 0) scale(0.996264)"/>
     <use xlink:href="#CMSS17-30" transform="translate(2639.700184 0) scale(0.996264)"/>
     <use xlink:href="#CMSS17-74" transform="translate(2686.543808 0) scale(0.996264)"/>
     <use xlink:href="#CMSS17-68" transform="translate(2720.375375 0) scale(0.996264)"/>
     <use xlink:href="#CMSS17-69" transform="translate(2799.80943 0) scale(0.996264)"/>
     <use xlink:href="#CMSS17-74" transform="translate(2821.990154 0) scale(0.996264)"/>
     <use xlink:href="#CMSS17-72" transform="translate(2855.82172 0) scale(0.996264)"/>
     <use xlink:href="#CMSS17-2e" transform="translate(2887.731493 0) scale(0.996264)"/>
     <use xlink:href="#CMSS17-29" transform="translate(2913.755698 0) scale(0.996264)"/>
     <use xlink:href="#CMSS17-29" transform="translate(2950.189612 0) scale(0.996264)"/>
    </g>
   </g>
   <g id="legend_1">
    <g id="patch_7">
     <path d="M 350.007771 115.626354 
L 432.94 115.626354 
Q 435.14 115.626354 435.14 113.426354 
L 435.14 37.076 
Q 435.14 34.876 432.94 34.876 
L 350.007771 34.876 
Q 347.807771 34.876 347.807771 37.076 
L 347.807771 113.426354 
Q 347.807771 115.626354 350.007771 115.626354 
z
" style="fill: #ffffff; opacity: 0.8; stroke: #cccccc; stroke-linejoin: miter"/>
    </g>
    <g id="text_18">
     <!-- flipping order -->
     <g style="fill: #262626" transform="translate(359.362066 47.57818) scale(0.12 -0.12)">
      <defs>
       <path id="CMSS17-d" d="M 1075 2368 
L 1773 2368 
L 1773 2737 
L 1062 2737 
L 1062 3578 
C 1062 3919 1216 4092 1421 4092 
C 1594 4092 1754 4021 1773 4009 
L 1773 4429 
C 1722 4442 1574 4480 1421 4480 
C 941 4480 602 3993 602 3372 
L 602 2737 
L 160 2737 
L 160 2368 
L 602 2368 
L 602 0 
L 1075 0 
L 1075 2368 
z
M 2733 4429 
L 2259 4429 
L 2259 0 
L 2733 0 
L 2733 4429 
z
" transform="scale(0.015625)"/>
      </defs>
      <use xlink:href="#CMSS17-d" transform="scale(0.996264)"/>
      <use xlink:href="#CMSS17-69" transform="translate(50.126737 0) scale(0.996264)"/>
      <use xlink:href="#CMSS17-70" transform="translate(72.30746 0) scale(0.996264)"/>
      <use xlink:href="#CMSS17-70" transform="translate(120.512403 0) scale(0.996264)"/>
      <use xlink:href="#CMSS17-69" transform="translate(168.717347 0) scale(0.996264)"/>
      <use xlink:href="#CMSS17-6e" transform="translate(190.89807 0) scale(0.996264)"/>
      <use xlink:href="#CMSS17-67" transform="translate(239.103013 0) scale(0.996264)"/>
      <use xlink:href="#CMSS17-6f" transform="translate(317.175749 0) scale(0.996264)"/>
      <use xlink:href="#CMSS17-72" transform="translate(361.416919 0) scale(0.996264)"/>
      <use xlink:href="#CMSS17-64" transform="translate(393.326691 0) scale(0.996264)"/>
      <use xlink:href="#CMSS17-65" transform="translate(441.531634 0) scale(0.996264)"/>
      <use xlink:href="#CMSS17-72" transform="translate(483.170456 0) scale(0.996264)"/>
     </g>
    </g>
    <g id="line2d_23">
     <path d="M 352.207771 59.252776 
L 363.207771 59.252776 
L 374.207771 59.252776 
" style="fill: none; stroke-dasharray: 7.5,3,1.5,3; stroke-dashoffset: 0; stroke: #1f77b4; stroke-width: 1.5"/>
    </g>
    <g id="text_19">
     <!-- edge order -->
     <g style="fill: #262626" transform="translate(383.007771 63.102776) scale(0.11 -0.11)">
      <use xlink:href="#CMSS17-65" transform="scale(0.996264)"/>
      <use xlink:href="#CMSS17-64" transform="translate(41.638822 0) scale(0.996264)"/>
      <use xlink:href="#CMSS17-67" transform="translate(89.843765 0) scale(0.996264)"/>
      <use xlink:href="#CMSS17-65" transform="translate(136.687389 0) scale(0.996264)"/>
      <use xlink:href="#CMSS17-6f" transform="translate(209.555324 0) scale(0.996264)"/>
      <use xlink:href="#CMSS17-72" transform="translate(253.796493 0) scale(0.996264)"/>
      <use xlink:href="#CMSS17-64" transform="translate(285.706266 0) scale(0.996264)"/>
      <use xlink:href="#CMSS17-65" transform="translate(333.911209 0) scale(0.996264)"/>
      <use xlink:href="#CMSS17-72" transform="translate(375.550031 0) scale(0.996264)"/>
     </g>
    </g>
    <g id="line2d_24">
     <path d="M 352.207771 74.58367 
L 363.207771 74.58367 
L 374.207771 74.58367 
" style="fill: none; stroke-dasharray: 4.5,3,1.5,3; stroke-dashoffset: 0; stroke: #ff7f0e; stroke-width: 1.5"/>
    </g>
    <g id="text_20">
     <!-- greedy -->
     <g style="fill: #262626" transform="translate(383.007771 78.43367) scale(0.11 -0.11)">
      <use xlink:href="#CMSS17-67" transform="scale(0.996264)"/>
      <use xlink:href="#CMSS17-72" transform="translate(46.843624 0) scale(0.996264)"/>
      <use xlink:href="#CMSS17-65" transform="translate(78.753396 0) scale(0.996264)"/>
      <use xlink:href="#CMSS17-65" transform="translate(120.392218 0) scale(0.996264)"/>
      <use xlink:href="#CMSS17-64" transform="translate(162.03104 0) scale(0.996264)"/>
      <use xlink:href="#CMSS17-79" transform="translate(210.235983 0) scale(0.996264)"/>
     </g>
    </g>
    <g id="line2d_25">
     <path d="M 352.207771 89.914565 
L 363.207771 89.914565 
L 374.207771 89.914565 
" style="fill: none; stroke-dasharray: 6,3,1.5,3; stroke-dashoffset: 0; stroke: #2ca02c; stroke-width: 1.5"/>
    </g>
    <g id="text_21">
     <!-- random -->
     <g style="fill: #262626" transform="translate(383.007771 93.764565) scale(0.11 -0.11)">
      <defs>
       <path id="CMSS17-6d" d="M 4288 1877 
C 4288 2308 4179 2816 3462 2816 
C 2982 2816 2694 2516 2566 2331 
C 2451 2670 2182 2816 1798 2816 
C 1363 2816 1088 2568 941 2389 
L 941 2758 
L 474 2758 
L 474 0 
L 960 0 
L 960 1559 
C 960 1939 1101 2428 1555 2428 
C 2138 2428 2138 2016 2138 1829 
L 2138 0 
L 2624 0 
L 2624 1559 
C 2624 1939 2765 2428 3219 2428 
C 3802 2428 3802 2016 3802 1829 
L 3802 0 
L 4288 0 
L 4288 1877 
z
" transform="scale(0.015625)"/>
      </defs>
      <use xlink:href="#CMSS17-72" transform="scale(0.996264)"/>
      <use xlink:href="#CMSS17-61" transform="translate(31.909773 0) scale(0.996264)"/>
      <use xlink:href="#CMSS17-6e" transform="translate(76.831693 0) scale(0.996264)"/>
      <use xlink:href="#CMSS17-64" transform="translate(125.036636 0) scale(0.996264)"/>
      <use xlink:href="#CMSS17-6f" transform="translate(173.241579 0) scale(0.996264)"/>
      <use xlink:href="#CMSS17-6d" transform="translate(220.085203 0) scale(0.996264)"/>
     </g>
    </g>
    <g id="line2d_26">
     <path d="M 352.207771 105.245459 
L 363.207771 105.245459 
L 374.207771 105.245459 
" style="fill: none; stroke-dasharray: 3,3,1.5,3; stroke-dashoffset: 0; stroke: #d62728; stroke-width: 1.5"/>
    </g>
    <g id="text_22">
     <!-- heuristic -->
     <g style="fill: #262626" transform="translate(383.007771 109.095459) scale(0.11 -0.11)">
      <defs>
       <path id="CMSS17-63" d="M 2464 2541 
C 2464 2585 2170 2714 2093 2739 
C 1882 2816 1613 2816 1542 2816 
C 710 2816 211 2093 211 1363 
C 211 595 768 -64 1517 -64 
C 1946 -64 2253 76 2502 242 
L 2464 664 
C 2189 453 1869 337 1523 337 
C 1024 337 698 774 698 1369 
C 698 1831 909 2414 1549 2414 
C 1901 2414 2099 2343 2394 2145 
L 2464 2541 
z
" transform="scale(0.015625)"/>
      </defs>
      <use xlink:href="#CMSS17-68" transform="scale(0.996264)"/>
      <use xlink:href="#CMSS17-65" transform="translate(48.204943 0) scale(0.996264)"/>
      <use xlink:href="#CMSS17-75" transform="translate(89.843765 0) scale(0.996264)"/>
      <use xlink:href="#CMSS17-72" transform="translate(138.048708 0) scale(0.996264)"/>
      <use xlink:href="#CMSS17-69" transform="translate(169.958481 0) scale(0.996264)"/>
      <use xlink:href="#CMSS17-73" transform="translate(192.139204 0) scale(0.996264)"/>
      <use xlink:href="#CMSS17-74" transform="translate(228.052746 0) scale(0.996264)"/>
      <use xlink:href="#CMSS17-69" transform="translate(261.884313 0) scale(0.996264)"/>
      <use xlink:href="#CMSS17-63" transform="translate(284.065036 0) scale(0.996264)"/>
     </g>
    </g>
   </g>
  </g>
 </g>
 <defs>
  <clipPath id="ped79c98e11">
   <rect x="61.2" y="29.376" width="379.44" height="188.496"/>
  </clipPath>
 </defs>
</svg>
